# xmcd
#
# Track frame offsets: 
#        150
#        14410
#        29400
#        45133
#        59640
#        74470
#        90407
#        107836
#        122336
#        136289
#        156071
#        174305
#        182672
#        201582
#
# Disc length: 2891 seconds
#
# Revision: 0
# Processed by: cddbd v1.5.2PL0 Copyright (c) Steve Scherf et al.
# Submitted via: ExactAudioCopy v0.95b4
#
DISCID=b90b490e
DTITLE=Юрий Кузнецов - Снега войны
DYEAR=2006
DGENRE=Musical
TTITLE0=Холодные снега войны
TTITLE1=Девятая рота
TTITLE2=Ты вернись, сынок
TTITLE3=42-й
TTITLE4=А нам бы ночь пережить
TTITLE5=Дожди фронтовые
TTITLE6=Сибиряки
TTITLE7=Письмецо
TTITLE8=На Балканы
TTITLE9=Генерал Берсерков
TTITLE10=Татуировка ВДВ
TTITLE11=Гвардейский романс
TTITLE12=Последний воин
TTITLE13=Сибиряки (remix)
EXTD=
EXTT0=
EXTT1=
EXTT2=
EXTT3=
EXTT4=
EXTT5=
EXTT6=
EXTT7=
EXTT8=
EXTT9=
EXTT10=
EXTT11=
EXTT12=
EXTT13=
PLAYORDER=
